<svg xmlns="http://www.w3.org/2000/svg" width="1200" height="630" viewBox="0 0 1200 630">
  <defs>
    <radialGradient id="glow" cx="82%" cy="18%" r="65%">
      <stop offset="0" stop-color="#67115c" stop-opacity=".62"/>
      <stop offset=".55" stop-color="#111336" stop-opacity=".28"/>
      <stop offset="1" stop-color="#030718" stop-opacity="0"/>
    </radialGradient>
    <linearGradient id="accent" x1="0" y1="0" x2="1" y2="1">
      <stop stop-color="#f036b7"/>
      <stop offset="1" stop-color="#9d35d7"/>
    </linearGradient>
  </defs>
  <rect width="1200" height="630" fill="#030718"/>
  <rect width="1200" height="630" fill="url(#glow)"/>
  <path d="M0 105h1200M0 210h1200M0 315h1200M0 420h1200M0 525h1200M200 0v630M400 0v630M600 0v630M800 0v630M1000 0v630" stroke="#6f6890" stroke-opacity=".11"/>
  <path d="M815 465 956 263l138 174M815 465l279-28M956 263l96-103" fill="none" stroke="#a73bd1" stroke-opacity=".68" stroke-width="2"/>
  <circle cx="815" cy="465" r="10" fill="#5c55e8"/>
  <circle cx="956" cy="263" r="11" fill="#e42cab"/>
  <circle cx="1094" cy="437" r="14" fill="url(#accent)"/>
  <circle cx="1052" cy="160" r="8" fill="#e42cab"/>
  <text x="80" y="105" fill="#e42cab" font-family="Arial, sans-serif" font-size="22" letter-spacing="4">AI · KNOWLEDGE GRAPHS · ONTOLOGY ENGINEERING</text>
  <text x="75" y="230" fill="#f8f7fc" font-family="Arial, sans-serif" font-size="62" font-weight="600">Building the knowledge systems</text>
  <text x="75" y="305" fill="#f8f7fc" font-family="Arial, sans-serif" font-size="62" font-weight="600">behind intelligent products.</text>
  <text x="80" y="500" fill="#b7b4c7" font-family="Arial, sans-serif" font-size="28">Jenifer Tabita Ciuciu-Kiss</text>
</svg>
