<?xml version="1.0" standalone="no"?>
<!DOCTYPE svg PUBLIC "-//W3C//DTD SVG 20010904//EN"
 "http://www.w3.org/TR/2001/REC-SVG-20010904/DTD/svg10.dtd">
<svg version="1.0" xmlns="http://www.w3.org/2000/svg"
 width="16.000000pt" height="16.000000pt" viewBox="0 0 16.000000 16.000000"
 preserveAspectRatio="xMidYMid meet">

<g transform="translate(0.000000,16.000000) scale(0.100000,-0.100000)"
fill="#000000" stroke="none">
<path d="M44 106 c-3 -8 -4 -27 -2 -43 3 -25 7 -28 38 -28 34 0 35 1 38 43 l3
42 -36 0 c-21 0 -38 -6 -41 -14z m47 -59 c-7 -7 -15 -6 -25 3 -16 13 -13 30 5
30 6 0 7 -4 4 -10 -3 -5 -1 -10 4 -10 6 0 12 12 12 28 l2 27 4 -29 c3 -16 0
-33 -6 -39z"/>
</g>
</svg>
